<svg xmlns="http://www.w3.org/2000/svg" viewBox="0 0 64 64" role="img" aria-labelledby="title">
  <title>Growatt 9290 Inspector</title>
  <rect width="64" height="64" rx="14" fill="#0F766E"/>
  <path d="M15 33c0-9.389 7.611-17 17-17 6.013 0 11.297 3.124 14.316 7.84l-4.35 2.52A11.96 11.96 0 0 0 32 21c-6.627 0-12 5.373-12 12s5.373 12 12 12c4.055 0 7.64-2.013 9.813-5.093H34v-5h16v16h-5v-6.449C41.771 49.06 37.196 51 32 51c-9.389 0-17-7.611-17-17Z" fill="#ECFEFF"/>
  <circle cx="50" cy="15" r="7" fill="#F59E0B"/>
  <text x="50" y="18" text-anchor="middle" font-size="7" font-family="Arial, sans-serif" fill="#111827">29</text>
</svg>
