<svg xmlns="http://www.w3.org/2000/svg" viewBox="0 0 320 180" role="img" aria-labelledby="title desc">
  <title>Growatt 9290 Inspector</title>
  <desc>Simple illustration for the Growatt 9290 Inspector skill.</desc>
  <defs>
    <linearGradient id="bg" x1="0" y1="0" x2="1" y2="1">
      <stop offset="0%" stop-color="#134E4A"/>
      <stop offset="100%" stop-color="#0F766E"/>
    </linearGradient>
  </defs>
  <rect width="320" height="180" rx="24" fill="url(#bg)"/>
  <rect x="28" y="28" width="168" height="124" rx="16" fill="#ECFEFF" opacity="0.94"/>
  <rect x="44" y="48" width="136" height="12" rx="6" fill="#99F6E4"/>
  <rect x="44" y="72" width="116" height="10" rx="5" fill="#5EEAD4"/>
  <rect x="44" y="92" width="128" height="10" rx="5" fill="#CCFBF1"/>
  <rect x="44" y="112" width="92" height="10" rx="5" fill="#5EEAD4"/>
  <circle cx="242" cy="76" r="34" fill="#F59E0B"/>
  <circle cx="242" cy="76" r="24" fill="#FEF3C7"/>
  <path d="M232 76h20M242 66v20" stroke="#B45309" stroke-width="6" stroke-linecap="round"/>
  <path d="M208 130c9-19 29-31 52-31 14 0 28 5 39 15" fill="none" stroke="#99F6E4" stroke-width="8" stroke-linecap="round"/>
  <text x="208" y="151" font-size="24" font-family="Arial, sans-serif" font-weight="700" fill="#ECFEFF">Growatt 9290</text>
  <text x="208" y="169" font-size="13" font-family="Arial, sans-serif" fill="#CCFBF1">Token, bind, info, data</text>
</svg>
